<svg width="18" height="18" viewBox="0 0 18 18" fill="none" xmlns="http://www.w3.org/2000/svg">
<g opacity="0.9" clip-path="url(#clip0_1171_700)">
<path d="M0 10.2523C0.301736 10.0055 0.567552 9.67393 0.911495 9.52528C5.30732 7.61898 9.89174 6.37213 14.6252 5.66042C15.1425 5.58294 15.6597 5.50727 16.177 5.42889C16.7104 5.34781 17.0571 5.51898 17.2367 6.02348C17.4944 6.7442 17.736 7.46492 17.9551 8.20186C18.106 8.71267 17.8985 8.98925 17.3651 9.07754C11.9204 9.97844 6.63371 11.4199 1.5913 13.7028C0.938436 13.9983 0.627719 13.8244 0.478647 13.1091C0.323289 12.3658 0.161644 11.6253 0.00269413 10.8829L0 10.2523Z" fill="white"/>
<path d="M7.00488 18.0001C6.57383 17.8127 6.36728 17.4757 6.2667 17.019C6.1329 16.4064 5.93533 15.8073 5.771 15.2001C5.57972 14.4875 5.76291 14.1109 6.46427 13.8974C8.42017 13.3055 10.3752 12.7091 12.3436 12.1622C13.5946 11.8154 14.8671 11.5451 16.1333 11.2568C16.7359 11.119 17.052 11.3181 17.2486 11.9199C17.4618 12.5739 17.6683 13.2301 17.8683 13.8884C18.0605 14.519 17.9042 14.7451 17.2792 14.9325C13.9918 15.9175 10.7074 16.91 7.42605 17.91C7.37205 17.9338 7.32109 17.964 7.27429 18.0001H7.00488Z" fill="white"/>
<path d="M2.59753 3.05059C2.59125 2.4578 2.83281 2.13167 3.35636 2.00014C4.87672 1.61996 6.39258 1.20915 7.92821 0.906444C9.70001 0.556894 11.4916 0.309147 13.2759 0.0226604C13.8336 -0.0674297 14.1677 0.112751 14.3697 0.64158C14.6391 1.34068 14.8969 2.04338 15.1375 2.75239C15.3171 3.29293 15.1088 3.64879 14.5556 3.72987C11.0662 4.22839 7.61872 4.98725 4.24181 6.00014C3.67696 6.17221 3.35636 5.98032 3.2019 5.40554C2.98099 4.58212 2.77714 3.75419 2.59753 3.05059Z" fill="white"/>
</g>
<defs>
<clipPath id="clip0_1171_700">
<rect width="18" height="18" fill="white"/>
</clipPath>
</defs>
</svg>
