<svg width="32" height="21" viewBox="0 0 32 21" fill="none" xmlns="http://www.w3.org/2000/svg">
<g opacity="0.9" clip-path="url(#clip0_1171_688)">
<path fill-rule="evenodd" clip-rule="evenodd" d="M0 1.5C0 0.671573 0.671573 0 1.5 0H30.5C31.3284 0 32 0.671573 32 1.5V19.5C32 20.3284 31.3284 21 30.5 21H1.5C0.671573 21 0 20.3284 0 19.5V1.5Z" fill="#F4F6F7"/>
<path fill-rule="evenodd" clip-rule="evenodd" d="M0 1.5C0 0.671573 0.671573 0 1.5 0H30.5C31.3284 0 32 0.671573 32 1.5V19.5C32 20.3284 31.3284 21 30.5 21H1.5C0.671573 21 0 20.3284 0 19.5V1.5Z" fill="#E5E5E5" fill-opacity="0.01"/>
<path fill-rule="evenodd" clip-rule="evenodd" d="M17.3134 15.4802C20.0165 15.4932 22.4837 13.2556 22.4837 10.5335C22.4837 7.55663 20.0165 5.49901 17.3134 5.5H14.987C12.2516 5.49901 10 7.55725 10 10.5335C10 13.2562 12.2516 15.4933 14.987 15.4802H17.3134Z" fill="url(#paint0_linear_1171_688)"/>
<path fill-rule="evenodd" clip-rule="evenodd" d="M14.9967 5.91577C12.497 5.91656 10.4715 7.96112 10.4709 10.4845C10.4715 13.0075 12.497 15.0518 14.9967 15.0526C17.4969 15.0518 19.5228 13.0075 19.5231 10.4845C19.5228 7.96112 17.4969 5.91656 14.9967 5.91577ZM12.1279 10.4845C12.1303 9.25143 12.8934 8.19995 13.9696 7.78211V13.1863C12.8934 12.7687 12.1303 11.7178 12.1279 10.4845ZM16.0233 13.1875V7.78193C17.0999 8.19876 17.8642 9.25084 17.8662 10.4845C17.8642 11.7185 17.0999 12.7698 16.0233 13.1875Z" fill="#F4F6F7"/>
</g>
<defs>
<linearGradient id="paint0_linear_1171_688" x1="25.0743" y1="13.5703" x2="21.8728" y2="3.10755" gradientUnits="userSpaceOnUse">
<stop stop-color="#1B1B1B"/>
<stop offset="1" stop-color="#9C9C9C"/>
</linearGradient>
<clipPath id="clip0_1171_688">
<rect width="32" height="21" fill="white"/>
</clipPath>
</defs>
</svg>
