<svg width="27" height="27" viewBox="0 0 27 27" fill="none" xmlns="http://www.w3.org/2000/svg">
<g clip-path="url(#clip0_1171_642)">
<path d="M26.9888 13.5055C26.9888 16.0444 26.9888 18.5726 26.9888 21.1009C27.0304 21.8818 26.9063 22.6627 26.6248 23.3931C26.3432 24.1235 25.9104 24.7871 25.3542 25.3411C24.7981 25.8951 24.131 26.3271 23.3961 26.6092C22.6612 26.8913 21.8749 27.0172 21.0879 26.9788C16.0219 26.9788 10.9594 26.9788 5.90044 26.9788C5.11245 27.0177 4.32505 26.8913 3.58964 26.6077C2.85422 26.3242 2.18733 25.8899 1.6325 25.3331C1.07767 24.7764 0.647374 24.1098 0.369707 23.3769C0.0920397 22.644 -0.0268041 21.8611 0.0210265 21.0795C0.0210265 16.0515 0.0210265 11.0305 0.0210265 6.01669C-0.0377212 5.21578 0.0774264 4.4117 0.358685 3.65874C0.639945 2.90579 1.0808 2.22151 1.65139 1.65217C2.22199 1.08282 2.90906 0.64165 3.6662 0.358484C4.42333 0.0753171 5.2329 -0.0432662 6.04017 0.0107605C11.0274 0.0107605 16.0039 0.0107605 20.9912 0.0107605C24.6671 0.0107605 26.9673 2.34701 26.9888 6.02737C26.9996 8.52362 26.9888 11.0199 26.9888 13.5055ZM24.6672 13.5588C24.6672 11.0625 24.6672 8.57695 24.6672 6.09137C24.6672 3.6058 23.3774 2.34702 20.9052 2.33635H6.08314C3.654 2.33635 2.34271 3.59514 2.33196 5.97404C2.33196 11.0021 2.33196 16.023 2.33196 21.0369C2.28032 21.5258 2.33881 22.02 2.50318 22.4837C2.66756 22.9475 2.93372 23.3691 3.28242 23.7183C3.63112 24.0674 4.05365 24.3353 4.51943 24.5025C4.98521 24.6698 5.48263 24.7321 5.97569 24.6852C10.9916 24.7279 16.0075 24.7279 21.0235 24.6852C21.5172 24.7268 22.0141 24.6599 22.4789 24.4894C22.9436 24.319 23.3649 24.049 23.7127 23.6987C24.0605 23.3484 24.3263 22.9264 24.4912 22.4627C24.6562 21.999 24.7163 21.5049 24.6672 21.0155C24.6887 18.5619 24.6349 16.0444 24.6349 13.5588H24.6672Z" fill="white"/>
<path d="M6.43835 13.3774C6.53778 11.5603 7.3454 9.85282 8.69044 8.61607C10.0355 7.37932 11.8125 6.71031 13.6456 6.75049C15.4787 6.79067 17.2242 7.53691 18.5129 8.83139C19.8016 10.1259 20.5325 11.8671 20.551 13.6868C20.4516 15.5039 19.6439 17.2114 18.2989 18.4481C16.9538 19.6849 15.1768 20.3539 13.3437 20.3137C11.5106 20.2736 9.76516 19.5273 8.47644 18.2328C7.18773 16.9384 6.45684 15.1971 6.43835 13.3774ZM13.543 8.82231C12.9245 8.80958 12.3097 8.9188 11.734 9.14363C11.1584 9.36846 10.6334 9.70445 10.1895 10.1321C9.74559 10.5598 9.39162 11.0706 9.14809 11.635C8.90456 12.1994 8.7763 12.8061 8.77074 13.4201C8.73388 14.0537 8.82687 14.6882 9.04411 15.2852C9.26134 15.8821 9.59834 16.4291 10.0346 16.8932C10.471 17.3572 10.9975 17.7285 11.5826 17.9848C12.1676 18.2411 12.7989 18.3769 13.4384 18.3842C14.0778 18.3914 14.7121 18.2698 15.3029 18.0268C15.8937 17.7838 16.4286 17.4244 16.8755 16.9704C17.3223 16.5163 17.6717 15.9771 17.9026 15.3852C18.1334 14.7933 18.241 14.1611 18.2186 13.5268C18.2272 12.912 18.1125 12.3017 17.8814 11.7313C17.6502 11.1609 17.3072 10.6417 16.8722 10.204C16.4372 9.76631 15.9188 9.41875 15.3473 9.18156C14.7758 8.94436 14.1625 8.82225 13.543 8.82231Z" fill="white"/>
<path d="M21.0346 7.75535C20.6022 7.7415 20.1921 7.5612 19.8912 7.2526C19.5903 6.944 19.4221 6.53132 19.4224 6.10187C19.4418 5.67074 19.628 5.26368 19.9424 4.96556C20.2568 4.66744 20.675 4.50128 21.1098 4.50171C21.5422 4.51565 21.9517 4.69813 22.2495 5.00964C22.5472 5.32114 22.7093 5.73657 22.7006 6.16587C22.6993 6.37967 22.6548 6.59103 22.5698 6.78748C22.4848 6.98394 22.361 7.1615 22.2057 7.30967C22.0504 7.45784 21.8667 7.57362 21.6656 7.65017C21.4645 7.72671 21.2499 7.76248 21.0346 7.75535Z" fill="white"/>
</g>
<defs>
<clipPath id="clip0_1171_642">
<rect width="27" height="27" fill="white"/>
</clipPath>
</defs>
</svg>
