<svg width="19" height="19" viewBox="0 0 19 19" fill="none" xmlns="http://www.w3.org/2000/svg">
<path d="M0 0.090108H5.52115C5.5605 0.780893 5.59983 1.51148 5.64826 2.3643C8.18181 -0.214065 11.2845 -0.310713 14.493 0.334588C17.1961 0.880393 18.764 2.71964 18.8821 5.16724C19.1031 9.73836 18.9457 14.3237 18.9457 19H13.1369C13.1369 16.2937 13.1551 13.6556 13.1369 11.0176C13.1468 9.87768 13.0801 8.73832 12.9372 7.60631C12.6647 5.74431 11.5659 4.80905 9.78308 4.76357C7.66421 4.70387 6.35356 5.57944 6.04783 7.52103C5.82687 8.91681 5.87227 10.3638 5.85411 11.7709C5.82686 14.1332 5.85411 16.4955 5.85411 18.9716H0V0.090108Z" fill="white"/>
</svg>
