<svg width="29" height="29" viewBox="0 0 29 29" fill="none" xmlns="http://www.w3.org/2000/svg">
<path d="M10 10.0901H15.5211C15.5605 10.7809 15.5998 11.5115 15.6483 12.3643C18.1818 9.78594 21.2845 9.68929 24.493 10.3346C27.1961 10.8804 28.764 12.7196 28.8821 15.1672C29.1031 19.7384 28.9457 24.3237 28.9457 29H23.1369C23.1369 26.2937 23.1551 23.6556 23.1369 21.0176C23.1468 19.8777 23.0801 18.7383 22.9372 17.6063C22.6647 15.7443 21.5659 14.8091 19.7831 14.7636C17.6642 14.7039 16.3536 15.5794 16.0478 17.521C15.8269 18.9168 15.8723 20.3638 15.8541 21.7709C15.8269 24.1332 15.8541 26.4955 15.8541 28.9716H10V10.0901Z" fill="white"/>
<path d="M0 10H6V29H0V10Z" fill="white"/>
<path d="M3.05531 6.9994C2.66142 7.00788 2.26993 6.92576 1.90323 6.75773C1.53654 6.58969 1.20181 6.33904 0.918145 6.02008C0.63448 5.70112 0.407449 5.3201 0.25 4.89878C0.0925511 4.47745 0.00777305 4.02408 0.000509891 3.56453C-0.00675327 3.10498 0.0636416 2.64826 0.20767 2.22045C0.351699 1.79264 0.566529 1.40212 0.839922 1.07118C1.11332 0.740235 1.43991 0.475348 1.80105 0.291658C2.16218 0.107967 2.55079 0.00906858 2.94468 0.000594933C3.33858 -0.00787876 3.73007 0.0742393 4.09677 0.242272C4.46346 0.410306 4.79819 0.660958 5.08185 0.979917C5.36552 1.29888 5.59258 1.6799 5.75003 2.10122C5.90748 2.52255 5.99223 2.97592 5.99949 3.43547C6.00675 3.89502 5.93639 4.35174 5.79236 4.77955C5.64833 5.20736 5.43347 5.59789 5.16008 5.92883C4.88668 6.25977 4.56009 6.52465 4.19895 6.70834C3.83782 6.89203 3.44921 6.99093 3.05531 6.9994Z" fill="white"/>
</svg>
