<svg width="76" height="25" viewBox="0 0 76 25" fill="none" xmlns="http://www.w3.org/2000/svg">
<path d="M40.2354 0.466064V23.7545H45.0974V18.297L49.8932 13.052L54.6668 18.297V23.7545H59.5288V16.7814L52.8757 9.48746L60.8563 0.466064H54.6681L45.5397 10.8902V0.466064H40.2354Z" fill="white"/>
<path d="M5.30432 18.6306V0.466064H0V23.7545H13.5925V18.6312H5.30432V18.6306Z" fill="white"/>
<path fill-rule="evenodd" clip-rule="evenodd" d="M25.66 24.2198C32.324 24.2198 37.7274 18.9634 37.7274 12.1099C37.7274 5.25643 32.324 0 25.66 0C18.9961 0 13.5927 5.25643 13.5927 12.1099C13.5927 18.9634 18.9961 24.2198 25.66 24.2198ZM31.9782 14.7358C31.0119 17.3905 28.5722 19.0299 25.66 19.0299C21.8808 19.0299 18.897 16.2682 18.897 12.1099C18.897 7.95155 21.8808 5.18986 25.66 5.18986C29.4393 5.18986 32.4231 7.95155 32.4231 12.1099C32.4231 13.0641 32.2657 13.945 31.9782 14.7358Z" fill="white"/>
<path d="M72.8371 18.6306H67.7117V0.466064H62.4073V23.7545H75.9998V18.6312H72.8371V18.6306Z" fill="white"/>
</svg>
