<svg width="34" height="28" viewBox="0 0 34 28" fill="none" xmlns="http://www.w3.org/2000/svg">
<path d="M16.4563 8.69325C16.2416 3.79034 18.4191 0.714059 22.4409 0.0892334C24.2963 -0.19222 26.0691 0.179303 27.4979 1.38674C28.4228 2.16918 29.2211 2.23109 30.2231 1.80328C31.049 1.44584 31.8748 1.11935 32.7007 0.778797L32.976 1.04336C32.1308 2.14384 31.2857 3.24151 30.3828 4.4208L34 3.44416C32.9484 4.5559 32.2162 5.45935 31.3491 6.19958C31.046 6.43278 30.8022 6.73711 30.6384 7.08686C30.4745 7.43662 30.3954 7.82155 30.4076 8.20916C30.1323 18.0262 23.6274 25.8366 14.2431 27.666C9.33195 28.575 4.2653 27.6138 0 24.9641C3.70254 25.04 6.96185 24.3252 9.84405 22.0735C5.92129 20.8577 4.61371 19.8219 3.69427 17.134H6.21035C4.94405 16.1518 3.67776 15.3721 2.66748 14.3195C1.58287 13.1937 1.10938 11.7217 1.14792 10.047L3.71904 10.7366C1.16167 7.96992 0.371617 4.98089 2.05083 1.322C5.94331 5.80273 10.6754 8.27952 16.4563 8.69325Z" fill="white"/>
</svg>
