<svg width="32" height="22" viewBox="0 0 32 22" fill="none" xmlns="http://www.w3.org/2000/svg">
<path d="M15.8503 22C12.165 21.8279 8.47981 21.6982 4.7999 21.4705C2.24796 21.3169 1.06665 20.3214 0.629331 17.8326C-0.18665 13.0669 -0.25867 8.26144 0.70664 3.4957C1.17063 1.19756 2.42928 0.0696648 4.7599 0.053779C12.1757 -0.00976415 19.5942 -0.0256499 27.0127 0.053779C29.7326 0.0802553 30.9486 1.2055 31.4099 3.91403C32.2185 8.57771 32.1959 13.3461 31.3432 18.0021C30.9193 20.3055 29.7433 21.2401 27.3087 21.4652C26.3354 21.5552 25.3621 21.6876 24.3754 21.6982C21.5328 21.7273 18.6875 21.6982 15.8423 21.6982C15.8529 21.7988 15.8503 21.8994 15.8503 22ZM12.1517 5.37287V15.5186L21.9088 10.4881C21.6048 10.2895 21.4342 10.1571 21.2475 10.0592L12.1517 5.37287Z" fill="white"/>
</svg>
