<svg width="80" height="73" viewBox="0 0 80 73" fill="none" xmlns="http://www.w3.org/2000/svg">
<path d="M1.2177 53.9725C1.21769 38.7056 1.21241 23.6326 1.22284 8.55963C1.22459 6.03084 2.31769 4.31321 4.25932 3.63845C6.16087 2.97763 8.63605 3.48054 9.67294 5.10126C10.3198 6.11241 10.6963 7.48408 10.7012 8.69595C10.7663 24.9331 10.7439 41.1706 10.7446 57.408C10.7448 61.1363 11.2398 61.6265 14.9947 61.6266C33.86 61.6271 52.7254 61.6257 71.5908 61.6301C72.4912 61.6303 73.3959 61.6329 74.2914 61.7143C76.7612 61.939 78.4509 63.8933 78.4281 66.4437C78.4054 68.994 76.7051 70.872 74.2035 71.0921C73.6272 71.1428 73.0467 71.1683 72.4681 71.1684C53.0877 71.1717 33.7072 71.19 14.3268 71.1594C7.77961 71.149 3.49688 68.2699 1.86993 62.821C1.46929 61.4793 1.34001 60.0361 1.24077 58.6285C1.13638 57.148 1.21758 55.6544 1.2177 53.9725Z" fill="black"/>
<path d="M73.673 33.7821C73.6391 38.3694 73.7331 42.7685 73.5295 47.1537C73.3764 50.4511 71.3249 51.992 68.0959 51.6629C65.8788 51.437 64.2425 49.8969 64.1752 47.6327C64.0349 42.9197 63.9934 38.2023 63.9962 33.4867C64.0004 26.5732 64.0084 19.6583 64.1603 12.7471C64.2215 9.96043 66.1014 8.25643 68.6714 8.19326C71.2779 8.1292 73.3162 9.72721 73.4795 12.4646C73.7177 16.4574 73.6386 20.47 73.6685 24.4744C73.6912 27.5121 73.673 30.55 73.673 33.7821Z" fill="black"/>
<path d="M49.8174 24.3403C49.7321 20.13 49.4824 16.0593 49.7231 12.0182C49.8705 9.54297 52.1039 8.08331 54.5291 8.20149C56.925 8.31825 58.8278 9.80687 58.9628 12.2423C59.1699 15.9789 59.1419 19.7414 58.9718 23.4818C58.8726 25.6624 57.2188 27.1378 55.1225 27.4977C52.9348 27.8733 51.0159 26.7775 49.8174 24.3403Z" fill="black"/>
<path d="M22.2555 50.6964C21.6368 49.5887 20.7476 48.5971 20.6961 47.5635C20.5166 43.9585 20.415 40.3228 20.6857 36.7293C20.964 33.0342 24.8898 31.3245 28.0494 33.2764C29.6626 34.273 30.1096 35.8541 30.1328 37.5957C30.1723 40.5674 30.1753 43.5404 30.1366 46.5121C30.078 51.0125 26.3354 53.0615 22.2555 50.6964Z" fill="black"/>
<path d="M44.5842 31.3939C44.3893 35.5496 42.6382 37.4215 39.3465 37.1785C37.1046 37.013 35.2506 35.3759 35.1726 33.1247C35.0455 29.454 35.0397 25.7725 35.1658 22.1019C35.2518 19.5974 37.2611 17.9548 39.8358 17.9575C42.4248 17.9602 44.3552 19.5712 44.4813 22.119C44.6309 25.1431 44.5596 28.1782 44.5842 31.3939Z" fill="black"/>
</svg>
