<svg width="80" height="70" viewBox="0 0 80 70" fill="none" xmlns="http://www.w3.org/2000/svg">
<path d="M79.979 34.9248C79.979 37.3853 77.8951 39.3126 75.5334 39.3126H71.0878L71.1851 61.2107C71.1851 61.5798 71.1573 61.9488 71.1156 62.3179V64.5323C71.1156 67.5532 68.6289 70 65.5586 70H63.3358C63.183 70 63.0302 70 62.8774 69.9863C62.6829 70 62.4884 70 62.2939 70L57.7788 69.9863H54.4446C51.3744 69.9863 48.8876 67.5396 48.8876 64.5187V61.238V52.4898C48.8876 50.0703 46.901 48.1156 44.4421 48.1156H35.5509C33.0919 48.1156 31.1053 50.0703 31.1053 52.4898V61.238V64.5187C31.1053 67.5396 28.6185 69.9863 25.5483 69.9863H22.2141H17.7824C17.574 69.9863 17.3656 69.9727 17.1572 69.959C16.9905 69.9727 16.8238 69.9863 16.6571 69.9863H14.4343C11.3641 69.9863 8.8773 67.5396 8.8773 64.5187V49.2091C8.8773 49.0861 8.8773 48.9494 8.89119 48.8264V39.299H4.44559C1.94495 39.299 0 37.3853 0 34.9112C0 33.6809 0.416774 32.5874 1.38925 31.6305L36.9957 1.09354C37.9682 0.136692 39.0796 0 40.052 0C41.0245 0 42.1359 0.273384 42.9694 0.956844L78.4509 31.6442C79.5622 32.6011 80.118 33.6946 79.979 34.9248Z" fill="black"/>
</svg>
